<svg id="RhineLab" xmlns="http://www.w3.org/2000/svg" viewBox="0 0 1024 1024">
  <defs>
    <style>
      .cls-1 {
        fill: #000000;
      }
    </style>
  </defs>
  <g id="RhineLab-2" data-name="RhineLab">
    <path class="cls-1" d="M786.5,742a228.48,228.48,0,0,1-162.31-67c-4.19-4-55-52.7-112.19-107.54L399.82,675a230,230,0,1,1,0-325.9L504,448.89l8,7.7,26.28-25.19a40,40,0,1,1,55.36,57.75L569.8,512,678.73,616.42c.46.43,1,1,1.69,1.66h0A149,149,0,0,0,786.5,662c82.71,0,150-67.29,150-150s-67.29-150-150-150a149,149,0,0,0-106.06,43.93,40,40,0,1,1-56.57-56.56A230,230,0,1,1,786.5,742Zm-549-380c-82.71,0-150,67.29-150,150s67.29,150,150,150a149,149,0,0,0,106.06-43.93l.61-.6L454.2,512l-5.6-5.36L344.72,407.06l-1.15-1.14h0A149,149,0,0,0,237.5,362Z"/>
    <path class="cls-1" d="M297.5,492h-40V452a20,20,0,0,0-40,0v40h-40a20,20,0,0,0,0,40h40v40a20,20,0,0,0,40,0V532h40a20,20,0,0,0,0-40Z"/>
    <path class="cls-1" d="M846.5,532h-120a20,20,0,0,1,0-40h120a20,20,0,0,1,0,40Z"/>
  </g>
</svg>
